<?xml version="1.0" encoding="UTF-8"?>
<svg id="Layer_1" data-name="Layer 1" xmlns="http://www.w3.org/2000/svg" viewBox="0 0 1474.6 296.83">
  <defs>
    <style>
      .cls-1 {
        fill: none;
        stroke: #9c9c9c;
        stroke-dasharray: 0 5;
        stroke-linecap: round;
        stroke-miterlimit: 10;
        stroke-width: 2px;
      }
    </style>
  </defs>
  <path id="Path_14771" data-name="Path 14771" class="cls-1" d="m1,150.38C.41,69.08,65.83,2.69,147.13,2.09c81.3-.6,147.69,64.82,148.29,146.12,0,.34,0,.69,0,1.03l.25.45c.6,81.3,66.99,146.72,148.29,146.12,80.9-.6,146.16-66.36,146.13-147.26v.73c-.6-81.3,64.83-147.69,146.13-148.29,81.3-.6,147.69,64.83,148.29,146.13,0,.34,0,.68,0,1.02l.25.46c.6,81.3,67,146.72,148.3,146.12,80.9-.6,146.15-66.36,146.12-147.26v1.82c-.6-81.3,64.82-147.69,146.12-148.29s147.69,64.82,148.29,146.12c0,.35,0,.69,0,1.04"/>
</svg>